<mxfile host="app.diagrams.net" modified="2023-11-23T21:07:19.343Z" agent="Mozilla/5.0 (Windows NT 10.0; Win64; x64) AppleWebKit/537.36 (KHTML, like Gecko) Chrome/119.0.0.0 Safari/537.36" etag="e6fG-cytga8RJpqEKU2n" version="22.1.3" type="device">
  <diagram name="Página-1" id="hzWksPqb9lTic3A4lutS">
    <mxGraphModel dx="168" dy="87" grid="1" gridSize="10" guides="1" tooltips="1" connect="1" arrows="1" fold="1" page="1" pageScale="1" pageWidth="827" pageHeight="1169" math="0" shadow="0">
      <root>
        <mxCell id="0" />
        <mxCell id="1" parent="0" />
        <mxCell id="ebaqlHpqiGm12PECkaA1-1" value="tipo_terreno" style="rounded=0;whiteSpace=wrap;html=1;" parent="1" vertex="1">
          <mxGeometry x="120" y="360" width="110" height="60" as="geometry" />
        </mxCell>
        <mxCell id="ebaqlHpqiGm12PECkaA1-11" style="rounded=0;orthogonalLoop=1;jettySize=auto;html=1;endArrow=none;endFill=0;" parent="1" source="ebaqlHpqiGm12PECkaA1-12" target="ebaqlHpqiGm12PECkaA1-1" edge="1">
          <mxGeometry relative="1" as="geometry">
            <mxPoint x="201" y="660" as="targetPoint" />
          </mxGeometry>
        </mxCell>
        <mxCell id="ebaqlHpqiGm12PECkaA1-12" value="&lt;u&gt;id_tipo_terreno&amp;nbsp;&lt;/u&gt;" style="ellipse;whiteSpace=wrap;html=1;" parent="1" vertex="1">
          <mxGeometry x="20" y="410" width="100" height="40" as="geometry" />
        </mxCell>
        <mxCell id="ebaqlHpqiGm12PECkaA1-46" style="edgeStyle=orthogonalEdgeStyle;rounded=0;orthogonalLoop=1;jettySize=auto;html=1;entryX=1;entryY=0.5;entryDx=0;entryDy=0;endArrow=ERoneToMany;endFill=0;exitX=0;exitY=0.5;exitDx=0;exitDy=0;" parent="1" source="h35FMNAW-fjjw5_3rKHX-1" target="ebaqlHpqiGm12PECkaA1-1" edge="1">
          <mxGeometry relative="1" as="geometry" />
        </mxCell>
        <mxCell id="ebaqlHpqiGm12PECkaA1-15" value="Efeito_obj" style="rhombus;whiteSpace=wrap;html=1;" parent="1" vertex="1">
          <mxGeometry x="650" y="240.64" width="80" height="60" as="geometry" />
        </mxCell>
        <mxCell id="ebaqlHpqiGm12PECkaA1-18" style="rounded=0;orthogonalLoop=1;jettySize=auto;html=1;endArrow=none;endFill=0;entryX=0.5;entryY=0;entryDx=0;entryDy=0;" parent="1" source="ebaqlHpqiGm12PECkaA1-19" target="h35FMNAW-fjjw5_3rKHX-1" edge="1">
          <mxGeometry relative="1" as="geometry">
            <mxPoint x="380" y="390" as="targetPoint" />
          </mxGeometry>
        </mxCell>
        <mxCell id="ebaqlHpqiGm12PECkaA1-19" value="efeito" style="ellipse;whiteSpace=wrap;html=1;" parent="1" vertex="1">
          <mxGeometry x="292" y="290" width="68" height="50" as="geometry" />
        </mxCell>
        <mxCell id="ebaqlHpqiGm12PECkaA1-21" style="edgeStyle=orthogonalEdgeStyle;rounded=0;orthogonalLoop=1;jettySize=auto;html=1;entryX=0.006;entryY=0.622;entryDx=0;entryDy=0;endArrow=ERoneToMany;endFill=0;exitX=1;exitY=0.5;exitDx=0;exitDy=0;entryPerimeter=0;" parent="1" source="h35FMNAW-fjjw5_3rKHX-1" target="ebaqlHpqiGm12PECkaA1-20" edge="1">
          <mxGeometry relative="1" as="geometry">
            <Array as="points" />
          </mxGeometry>
        </mxCell>
        <mxCell id="ebaqlHpqiGm12PECkaA1-33" style="rounded=0;orthogonalLoop=1;jettySize=auto;html=1;endArrow=none;endFill=0;" parent="1" source="ebaqlHpqiGm12PECkaA1-54" target="ebaqlHpqiGm12PECkaA1-32" edge="1">
          <mxGeometry relative="1" as="geometry" />
        </mxCell>
        <mxCell id="ebaqlHpqiGm12PECkaA1-53" style="edgeStyle=orthogonalEdgeStyle;rounded=0;orthogonalLoop=1;jettySize=auto;html=1;entryX=0;entryY=0.5;entryDx=0;entryDy=0;endArrow=ERmandOne;endFill=0;" parent="1" source="ebaqlHpqiGm12PECkaA1-20" target="ebaqlHpqiGm12PECkaA1-52" edge="1">
          <mxGeometry relative="1" as="geometry">
            <Array as="points">
              <mxPoint x="520" y="388" />
              <mxPoint x="520" y="429" />
            </Array>
          </mxGeometry>
        </mxCell>
        <mxCell id="ebaqlHpqiGm12PECkaA1-20" value="Objeto_movel" style="rounded=0;whiteSpace=wrap;html=1;" parent="1" vertex="1">
          <mxGeometry x="395" y="350" width="90" height="65" as="geometry" />
        </mxCell>
        <mxCell id="ebaqlHpqiGm12PECkaA1-29" style="rounded=0;orthogonalLoop=1;jettySize=auto;html=1;exitX=0.25;exitY=0;exitDx=0;exitDy=0;entryX=0.5;entryY=1;entryDx=0;entryDy=0;endArrow=none;endFill=0;" parent="1" source="ebaqlHpqiGm12PECkaA1-22" target="ebaqlHpqiGm12PECkaA1-28" edge="1">
          <mxGeometry relative="1" as="geometry" />
        </mxCell>
        <mxCell id="ebaqlHpqiGm12PECkaA1-22" value="Rio" style="rounded=0;whiteSpace=wrap;html=1;" parent="1" vertex="1">
          <mxGeometry x="60" y="190" width="90" height="50" as="geometry" />
        </mxCell>
        <mxCell id="ebaqlHpqiGm12PECkaA1-24" style="rounded=0;orthogonalLoop=1;jettySize=auto;html=1;exitX=0.5;exitY=0;exitDx=0;exitDy=0;endArrow=ERzeroToMany;endFill=0;" parent="1" source="ebaqlHpqiGm12PECkaA1-23" target="ebaqlHpqiGm12PECkaA1-22" edge="1">
          <mxGeometry relative="1" as="geometry" />
        </mxCell>
        <mxCell id="ebaqlHpqiGm12PECkaA1-25" style="rounded=0;orthogonalLoop=1;jettySize=auto;html=1;exitX=0.5;exitY=1;exitDx=0;exitDy=0;entryX=0.5;entryY=0;entryDx=0;entryDy=0;endArrow=ERmandOne;endFill=0;edgeStyle=orthogonalEdgeStyle;" parent="1" source="ebaqlHpqiGm12PECkaA1-23" target="ebaqlHpqiGm12PECkaA1-1" edge="1">
          <mxGeometry relative="1" as="geometry">
            <Array as="points">
              <mxPoint x="103" y="340" />
              <mxPoint x="175" y="340" />
            </Array>
          </mxGeometry>
        </mxCell>
        <mxCell id="ebaqlHpqiGm12PECkaA1-23" value="é do tipo" style="rhombus;whiteSpace=wrap;html=1;" parent="1" vertex="1">
          <mxGeometry x="70" y="270" width="65.5" height="60" as="geometry" />
        </mxCell>
        <mxCell id="ebaqlHpqiGm12PECkaA1-26" style="rounded=0;orthogonalLoop=1;jettySize=auto;html=1;endArrow=none;endFill=0;exitX=1;exitY=1;exitDx=0;exitDy=0;entryX=0;entryY=0;entryDx=0;entryDy=0;" parent="1" source="ebaqlHpqiGm12PECkaA1-27" target="ebaqlHpqiGm12PECkaA1-22" edge="1">
          <mxGeometry relative="1" as="geometry">
            <mxPoint x="244" as="targetPoint" />
          </mxGeometry>
        </mxCell>
        <mxCell id="ebaqlHpqiGm12PECkaA1-27" value="&lt;u&gt;id_rio&amp;nbsp;&lt;/u&gt;" style="ellipse;whiteSpace=wrap;html=1;" parent="1" vertex="1">
          <mxGeometry x="2" y="140" width="60" height="40" as="geometry" />
        </mxCell>
        <mxCell id="ebaqlHpqiGm12PECkaA1-28" value="Nivel" style="ellipse;whiteSpace=wrap;html=1;" parent="1" vertex="1">
          <mxGeometry x="81" y="130" width="60" height="40" as="geometry" />
        </mxCell>
        <mxCell id="ebaqlHpqiGm12PECkaA1-30" style="rounded=0;orthogonalLoop=1;jettySize=auto;html=1;endArrow=none;endFill=0;entryX=0.5;entryY=1;entryDx=0;entryDy=0;" parent="1" source="ebaqlHpqiGm12PECkaA1-31" target="ebaqlHpqiGm12PECkaA1-20" edge="1">
          <mxGeometry relative="1" as="geometry">
            <mxPoint x="540" y="460" as="targetPoint" />
          </mxGeometry>
        </mxCell>
        <mxCell id="ebaqlHpqiGm12PECkaA1-31" value="&lt;u&gt;id&lt;/u&gt;" style="ellipse;whiteSpace=wrap;html=1;" parent="1" vertex="1">
          <mxGeometry x="380" y="430" width="44" height="40" as="geometry" />
        </mxCell>
        <mxCell id="ebaqlHpqiGm12PECkaA1-32" value="orientação" style="ellipse;whiteSpace=wrap;html=1;" parent="1" vertex="1">
          <mxGeometry x="510" y="604" width="70" height="46" as="geometry" />
        </mxCell>
        <mxCell id="ebaqlHpqiGm12PECkaA1-38" style="rounded=0;orthogonalLoop=1;jettySize=auto;html=1;exitX=0.75;exitY=0;exitDx=0;exitDy=0;entryX=0.5;entryY=1;entryDx=0;entryDy=0;endArrow=none;endFill=0;" parent="1" source="ebaqlHpqiGm12PECkaA1-39" target="ebaqlHpqiGm12PECkaA1-44" edge="1">
          <mxGeometry relative="1" as="geometry" />
        </mxCell>
        <mxCell id="ebaqlHpqiGm12PECkaA1-39" value="Terreno" style="rounded=0;whiteSpace=wrap;html=1;" parent="1" vertex="1">
          <mxGeometry x="202.53" y="181" width="98.98" height="50" as="geometry" />
        </mxCell>
        <mxCell id="ebaqlHpqiGm12PECkaA1-40" style="rounded=0;orthogonalLoop=1;jettySize=auto;html=1;exitX=0.5;exitY=1;exitDx=0;exitDy=0;entryX=0.75;entryY=0;entryDx=0;entryDy=0;endArrow=ERmandOne;endFill=0;edgeStyle=orthogonalEdgeStyle;" parent="1" source="ebaqlHpqiGm12PECkaA1-41" target="ebaqlHpqiGm12PECkaA1-1" edge="1">
          <mxGeometry relative="1" as="geometry">
            <mxPoint x="81.00000000000003" y="400" as="targetPoint" />
            <Array as="points">
              <mxPoint x="251" y="340" />
              <mxPoint x="203" y="340" />
            </Array>
          </mxGeometry>
        </mxCell>
        <mxCell id="ebaqlHpqiGm12PECkaA1-45" style="edgeStyle=orthogonalEdgeStyle;rounded=0;orthogonalLoop=1;jettySize=auto;html=1;entryX=0.5;entryY=1;entryDx=0;entryDy=0;endArrow=ERzeroToMany;endFill=0;" parent="1" source="ebaqlHpqiGm12PECkaA1-41" target="ebaqlHpqiGm12PECkaA1-39" edge="1">
          <mxGeometry relative="1" as="geometry" />
        </mxCell>
        <mxCell id="ebaqlHpqiGm12PECkaA1-41" value="é do tipo" style="rhombus;whiteSpace=wrap;html=1;" parent="1" vertex="1">
          <mxGeometry x="220.51" y="270" width="61.02" height="60" as="geometry" />
        </mxCell>
        <mxCell id="ebaqlHpqiGm12PECkaA1-42" style="rounded=0;orthogonalLoop=1;jettySize=auto;html=1;endArrow=none;endFill=0;exitX=0.5;exitY=1;exitDx=0;exitDy=0;" parent="1" source="ebaqlHpqiGm12PECkaA1-43" target="ebaqlHpqiGm12PECkaA1-39" edge="1">
          <mxGeometry relative="1" as="geometry">
            <mxPoint x="225.02" y="20" as="targetPoint" />
          </mxGeometry>
        </mxCell>
        <mxCell id="ebaqlHpqiGm12PECkaA1-43" value="&lt;u&gt;id_terreno&amp;nbsp;&lt;/u&gt;" style="ellipse;whiteSpace=wrap;html=1;" parent="1" vertex="1">
          <mxGeometry x="190" y="110" width="70" height="40" as="geometry" />
        </mxCell>
        <mxCell id="ebaqlHpqiGm12PECkaA1-44" value="Nivel" style="ellipse;whiteSpace=wrap;html=1;" parent="1" vertex="1">
          <mxGeometry x="272.98" y="110" width="51.02" height="40" as="geometry" />
        </mxCell>
        <mxCell id="ebaqlHpqiGm12PECkaA1-50" style="edgeStyle=orthogonalEdgeStyle;rounded=0;orthogonalLoop=1;jettySize=auto;html=1;endArrow=ERzeroToOne;endFill=0;exitX=1;exitY=0.5;exitDx=0;exitDy=0;" parent="1" source="ebaqlHpqiGm12PECkaA1-47" edge="1">
          <mxGeometry relative="1" as="geometry">
            <mxPoint x="444" y="233.62" as="sourcePoint" />
            <mxPoint x="470" y="350" as="targetPoint" />
            <Array as="points">
              <mxPoint x="520" y="261" />
              <mxPoint x="520" y="330" />
              <mxPoint x="470" y="330" />
              <mxPoint x="470" y="350" />
            </Array>
          </mxGeometry>
        </mxCell>
        <mxCell id="ebaqlHpqiGm12PECkaA1-51" style="edgeStyle=orthogonalEdgeStyle;rounded=0;orthogonalLoop=1;jettySize=auto;html=1;endArrow=ERzeroToOne;endFill=0;exitX=0;exitY=0.5;exitDx=0;exitDy=0;" parent="1" source="ebaqlHpqiGm12PECkaA1-47" edge="1">
          <mxGeometry relative="1" as="geometry">
            <Array as="points">
              <mxPoint x="420" y="261" />
              <mxPoint x="420" y="350" />
            </Array>
            <mxPoint x="420" y="350" as="targetPoint" />
          </mxGeometry>
        </mxCell>
        <mxCell id="ebaqlHpqiGm12PECkaA1-47" value="persegue" style="rhombus;whiteSpace=wrap;html=1;" parent="1" vertex="1">
          <mxGeometry x="424" y="220.64" width="80" height="80" as="geometry" />
        </mxCell>
        <mxCell id="ebaqlHpqiGm12PECkaA1-52" value="tem" style="rhombus;whiteSpace=wrap;html=1;" parent="1" vertex="1">
          <mxGeometry x="535" y="381.36" width="86" height="96" as="geometry" />
        </mxCell>
        <mxCell id="ebaqlHpqiGm12PECkaA1-55" style="rounded=0;orthogonalLoop=1;jettySize=auto;html=1;endArrow=ERmandOne;endFill=0;edgeStyle=orthogonalEdgeStyle;" parent="1" source="ebaqlHpqiGm12PECkaA1-54" target="ebaqlHpqiGm12PECkaA1-52" edge="1">
          <mxGeometry relative="1" as="geometry" />
        </mxCell>
        <mxCell id="ebaqlHpqiGm12PECkaA1-54" value="Cinematica" style="rounded=0;whiteSpace=wrap;html=1;" parent="1" vertex="1">
          <mxGeometry x="518" y="525.39" width="120" height="60" as="geometry" />
        </mxCell>
        <mxCell id="ebaqlHpqiGm12PECkaA1-58" style="rounded=0;orthogonalLoop=1;jettySize=auto;html=1;endArrow=none;endFill=0;" parent="1" source="ebaqlHpqiGm12PECkaA1-57" target="ebaqlHpqiGm12PECkaA1-54" edge="1">
          <mxGeometry relative="1" as="geometry" />
        </mxCell>
        <mxCell id="ebaqlHpqiGm12PECkaA1-57" value="&lt;u&gt;id&lt;/u&gt;" style="ellipse;whiteSpace=wrap;html=1;" parent="1" vertex="1">
          <mxGeometry x="623" y="590" width="41" height="46" as="geometry" />
        </mxCell>
        <mxCell id="ebaqlHpqiGm12PECkaA1-59" style="rounded=0;orthogonalLoop=1;jettySize=auto;html=1;endArrow=none;endFill=0;" parent="1" source="ebaqlHpqiGm12PECkaA1-54" target="ebaqlHpqiGm12PECkaA1-60" edge="1">
          <mxGeometry relative="1" as="geometry">
            <mxPoint x="1026" y="550" as="sourcePoint" />
          </mxGeometry>
        </mxCell>
        <mxCell id="ebaqlHpqiGm12PECkaA1-60" value="Velocidade" style="ellipse;whiteSpace=wrap;html=1;" parent="1" vertex="1">
          <mxGeometry x="630" y="470" width="80" height="40" as="geometry" />
        </mxCell>
        <mxCell id="ebaqlHpqiGm12PECkaA1-61" style="rounded=0;orthogonalLoop=1;jettySize=auto;html=1;endArrow=none;endFill=0;exitX=1;exitY=0;exitDx=0;exitDy=0;" parent="1" source="ebaqlHpqiGm12PECkaA1-60" target="ebaqlHpqiGm12PECkaA1-62" edge="1">
          <mxGeometry relative="1" as="geometry">
            <mxPoint x="1021" y="260" as="sourcePoint" />
          </mxGeometry>
        </mxCell>
        <mxCell id="ebaqlHpqiGm12PECkaA1-62" value="Linear" style="ellipse;whiteSpace=wrap;html=1;" parent="1" vertex="1">
          <mxGeometry x="734" y="440" width="61" height="40" as="geometry" />
        </mxCell>
        <mxCell id="ebaqlHpqiGm12PECkaA1-63" style="rounded=0;orthogonalLoop=1;jettySize=auto;html=1;endArrow=none;endFill=0;" parent="1" source="ebaqlHpqiGm12PECkaA1-60" target="ebaqlHpqiGm12PECkaA1-64" edge="1">
          <mxGeometry relative="1" as="geometry">
            <mxPoint x="741" y="510" as="sourcePoint" />
          </mxGeometry>
        </mxCell>
        <mxCell id="ebaqlHpqiGm12PECkaA1-64" value="Angular" style="ellipse;whiteSpace=wrap;html=1;" parent="1" vertex="1">
          <mxGeometry x="664" y="400" width="70" height="40" as="geometry" />
        </mxCell>
        <mxCell id="ebaqlHpqiGm12PECkaA1-65" style="rounded=0;orthogonalLoop=1;jettySize=auto;html=1;endArrow=none;endFill=0;exitX=1;exitY=0.5;exitDx=0;exitDy=0;" parent="1" source="ebaqlHpqiGm12PECkaA1-54" target="ebaqlHpqiGm12PECkaA1-66" edge="1">
          <mxGeometry relative="1" as="geometry">
            <mxPoint x="1017" y="845" as="sourcePoint" />
          </mxGeometry>
        </mxCell>
        <mxCell id="ebaqlHpqiGm12PECkaA1-66" value="Aceleração" style="ellipse;whiteSpace=wrap;html=1;" parent="1" vertex="1">
          <mxGeometry x="680" y="540" width="80" height="40" as="geometry" />
        </mxCell>
        <mxCell id="ebaqlHpqiGm12PECkaA1-67" style="rounded=0;orthogonalLoop=1;jettySize=auto;html=1;endArrow=none;endFill=0;exitX=0.653;exitY=0.04;exitDx=0;exitDy=0;exitPerimeter=0;" parent="1" source="ebaqlHpqiGm12PECkaA1-66" target="ebaqlHpqiGm12PECkaA1-68" edge="1">
          <mxGeometry relative="1" as="geometry">
            <mxPoint x="1152" y="525" as="sourcePoint" />
          </mxGeometry>
        </mxCell>
        <mxCell id="ebaqlHpqiGm12PECkaA1-68" value="Linear" style="ellipse;whiteSpace=wrap;html=1;" parent="1" vertex="1">
          <mxGeometry x="750" y="500" width="50" height="40" as="geometry" />
        </mxCell>
        <mxCell id="ebaqlHpqiGm12PECkaA1-69" style="rounded=0;orthogonalLoop=1;jettySize=auto;html=1;endArrow=none;endFill=0;" parent="1" source="ebaqlHpqiGm12PECkaA1-66" target="ebaqlHpqiGm12PECkaA1-70" edge="1">
          <mxGeometry relative="1" as="geometry">
            <mxPoint x="1041" y="605" as="sourcePoint" />
          </mxGeometry>
        </mxCell>
        <mxCell id="ebaqlHpqiGm12PECkaA1-70" value="Angular" style="ellipse;whiteSpace=wrap;html=1;" parent="1" vertex="1">
          <mxGeometry x="740" y="590" width="70" height="40" as="geometry" />
        </mxCell>
        <mxCell id="ebaqlHpqiGm12PECkaA1-71" style="rounded=0;orthogonalLoop=1;jettySize=auto;html=1;endArrow=none;endFill=0;entryX=0.5;entryY=0;entryDx=0;entryDy=0;" parent="1" source="ebaqlHpqiGm12PECkaA1-75" target="ebaqlHpqiGm12PECkaA1-90" edge="1">
          <mxGeometry relative="1" as="geometry">
            <mxPoint x="209" y="1007" as="targetPoint" />
          </mxGeometry>
        </mxCell>
        <mxCell id="ebaqlHpqiGm12PECkaA1-72" style="rounded=0;orthogonalLoop=1;jettySize=auto;html=1;endArrow=none;endFill=0;startArrow=ERzeroToMany;startFill=0;" parent="1" source="ebaqlHpqiGm12PECkaA1-54" target="ebaqlHpqiGm12PECkaA1-73" edge="1">
          <mxGeometry relative="1" as="geometry">
            <mxPoint x="1089" y="791" as="sourcePoint" />
            <mxPoint x="1010" y="750" as="targetPoint" />
          </mxGeometry>
        </mxCell>
        <mxCell id="ebaqlHpqiGm12PECkaA1-73" value="" style="rhombus;whiteSpace=wrap;html=1;" parent="1" vertex="1">
          <mxGeometry x="377" y="520" width="74" height="80" as="geometry" />
        </mxCell>
        <mxCell id="ebaqlHpqiGm12PECkaA1-74" style="rounded=0;orthogonalLoop=1;jettySize=auto;html=1;endArrow=none;endFill=0;startArrow=ERmandOne;startFill=0;" parent="1" source="ebaqlHpqiGm12PECkaA1-75" target="ebaqlHpqiGm12PECkaA1-73" edge="1">
          <mxGeometry relative="1" as="geometry" />
        </mxCell>
        <mxCell id="ebaqlHpqiGm12PECkaA1-75" value="Cinematica_hist" style="rounded=0;whiteSpace=wrap;html=1;" parent="1" vertex="1">
          <mxGeometry x="192.02" y="560" width="120" height="60" as="geometry" />
        </mxCell>
        <mxCell id="ebaqlHpqiGm12PECkaA1-77" style="rounded=0;orthogonalLoop=1;jettySize=auto;html=1;endArrow=none;endFill=0;" parent="1" source="ebaqlHpqiGm12PECkaA1-78" target="ebaqlHpqiGm12PECkaA1-75" edge="1">
          <mxGeometry relative="1" as="geometry" />
        </mxCell>
        <mxCell id="ebaqlHpqiGm12PECkaA1-78" value="&lt;u&gt;id&lt;/u&gt;" style="ellipse;whiteSpace=wrap;html=1;" parent="1" vertex="1">
          <mxGeometry x="118.05000000000001" y="580" width="49" height="40" as="geometry" />
        </mxCell>
        <mxCell id="ebaqlHpqiGm12PECkaA1-79" style="rounded=0;orthogonalLoop=1;jettySize=auto;html=1;endArrow=none;endFill=0;exitX=0.5;exitY=0;exitDx=0;exitDy=0;" parent="1" source="ebaqlHpqiGm12PECkaA1-75" target="ebaqlHpqiGm12PECkaA1-80" edge="1">
          <mxGeometry relative="1" as="geometry">
            <mxPoint x="299" y="891" as="sourcePoint" />
          </mxGeometry>
        </mxCell>
        <mxCell id="ebaqlHpqiGm12PECkaA1-80" value="Velocidade" style="ellipse;whiteSpace=wrap;html=1;" parent="1" vertex="1">
          <mxGeometry x="211.53" y="500" width="70" height="40" as="geometry" />
        </mxCell>
        <mxCell id="ebaqlHpqiGm12PECkaA1-81" style="rounded=0;orthogonalLoop=1;jettySize=auto;html=1;endArrow=none;endFill=0;exitX=0.653;exitY=0.04;exitDx=0;exitDy=0;exitPerimeter=0;" parent="1" source="ebaqlHpqiGm12PECkaA1-80" target="ebaqlHpqiGm12PECkaA1-91" edge="1">
          <mxGeometry relative="1" as="geometry">
            <mxPoint x="241" y="611" as="sourcePoint" />
            <mxPoint x="161" y="740" as="targetPoint" />
          </mxGeometry>
        </mxCell>
        <mxCell id="ebaqlHpqiGm12PECkaA1-82" style="rounded=0;orthogonalLoop=1;jettySize=auto;html=1;endArrow=none;endFill=0;" parent="1" source="ebaqlHpqiGm12PECkaA1-80" target="ebaqlHpqiGm12PECkaA1-83" edge="1">
          <mxGeometry relative="1" as="geometry">
            <mxPoint x="130" y="691" as="sourcePoint" />
          </mxGeometry>
        </mxCell>
        <mxCell id="ebaqlHpqiGm12PECkaA1-83" value="Angular" style="ellipse;whiteSpace=wrap;html=1;" parent="1" vertex="1">
          <mxGeometry x="190" y="450" width="60" height="40" as="geometry" />
        </mxCell>
        <mxCell id="ebaqlHpqiGm12PECkaA1-84" style="rounded=0;orthogonalLoop=1;jettySize=auto;html=1;endArrow=none;endFill=0;exitX=0.5;exitY=1;exitDx=0;exitDy=0;" parent="1" source="ebaqlHpqiGm12PECkaA1-75" target="ebaqlHpqiGm12PECkaA1-85" edge="1">
          <mxGeometry relative="1" as="geometry">
            <mxPoint x="469" y="861" as="sourcePoint" />
          </mxGeometry>
        </mxCell>
        <mxCell id="ebaqlHpqiGm12PECkaA1-85" value="Aceleração" style="ellipse;whiteSpace=wrap;html=1;" parent="1" vertex="1">
          <mxGeometry x="220.50999999999996" y="636" width="80" height="46" as="geometry" />
        </mxCell>
        <mxCell id="ebaqlHpqiGm12PECkaA1-86" style="rounded=0;orthogonalLoop=1;jettySize=auto;html=1;endArrow=none;endFill=0;" parent="1" source="ebaqlHpqiGm12PECkaA1-85" target="ebaqlHpqiGm12PECkaA1-88" edge="1">
          <mxGeometry relative="1" as="geometry">
            <mxPoint x="411" y="581" as="sourcePoint" />
            <mxPoint x="383" y="733" as="targetPoint" />
          </mxGeometry>
        </mxCell>
        <mxCell id="ebaqlHpqiGm12PECkaA1-87" style="rounded=0;orthogonalLoop=1;jettySize=auto;html=1;endArrow=none;endFill=0;" parent="1" source="ebaqlHpqiGm12PECkaA1-85" target="ebaqlHpqiGm12PECkaA1-89" edge="1">
          <mxGeometry relative="1" as="geometry">
            <mxPoint x="300" y="661" as="sourcePoint" />
            <mxPoint x="291" y="720" as="targetPoint" />
          </mxGeometry>
        </mxCell>
        <mxCell id="ebaqlHpqiGm12PECkaA1-88" value="Linear" style="ellipse;whiteSpace=wrap;html=1;" parent="1" vertex="1">
          <mxGeometry x="142.01999999999998" y="642" width="50" height="40" as="geometry" />
        </mxCell>
        <mxCell id="ebaqlHpqiGm12PECkaA1-89" value="Angular" style="ellipse;whiteSpace=wrap;html=1;" parent="1" vertex="1">
          <mxGeometry x="324" y="620" width="56" height="40" as="geometry" />
        </mxCell>
        <mxCell id="ebaqlHpqiGm12PECkaA1-90" value="orientação" style="ellipse;whiteSpace=wrap;html=1;" parent="1" vertex="1">
          <mxGeometry x="97.05" y="520" width="70" height="50" as="geometry" />
        </mxCell>
        <mxCell id="ebaqlHpqiGm12PECkaA1-91" value="Linear" style="ellipse;whiteSpace=wrap;html=1;" parent="1" vertex="1">
          <mxGeometry x="260" y="450" width="60" height="40" as="geometry" />
        </mxCell>
        <mxCell id="ebaqlHpqiGm12PECkaA1-96" value="" style="shape=image;verticalLabelPosition=bottom;labelBackgroundColor=default;verticalAlign=top;aspect=fixed;imageAspect=0;image=data:image/png,iVBORw0KGgoAAAANSUhEUgAAAFgAAABhCAYAAABS4GZRAAAM3klEQVR4Ae2dBYwU2xKGLxeX4O7u7u7uDsE1aHD3IMHd3d3dneDu7u7uUC9fvdtksmzDzDLL7Mx0JxWW3p3e039Xl/519h/xcXz//l0s8RsGPqDU//7j8yTgfvv2zRIHMQA33w5TgL9+/SqW2IcBCmk3wI8ePZKjR4/KihUrLLEDg82bN8uFCxfk3bt3vimw/KTBZ8+elUmTJkmtWrWkZs2alvwGg/bt28vKlSvlyZMn9gG8d+9eadWqlcSMGVNix44t8ePHl0SJElmSKJEkTJhQEiRIoJjEiRNHMcqZM6eMGDFC7ty5Yx/Au3btkqZNm0r48OElceLEwgVKlSplSalSUqxYMSlYsKDkypVLUqZMKTFixJAMGTLIkCFD5Pbt2/YBvGPHDmnYsKEEDx5cUqdOLZUrV5Z27dpZ0q6dtGjRQho0aCDVqlWTbNmySbRo0SRFihQyYMAAuXnzpn0Ab9++XerVqyeBAweWHDlySNu2bWXatGmWTJsmY8aMUTA7duwoxYsXl1ixYkmSJEmkX79+9gOMBvOUggYNKiVLltSLHjx4UCw5KFu3bpVly5bJxIkTpXbt2uqXkiZN6jjAhokgilizZo28ffvWkrdv5e7du3L69GkhNMNspkqVShwGeOfOndKoUSMJESKEmgqemnX8H4EXL17I1atXZc+ePdKlSxdJmzatJEuWTPr37y+3bt3yFaaf4mALYF9x0pMWwObYOOU7FsBOgdH8IhbA5tg45TsWwE6B0fwiFsDm2DjlOxbAToHR/CIWwObYOOU7FsBOgdH8IhbA5tg45TsuA9holNLD+/Lli1sJazZ6atyHWW+NJ+RSgAH248eP8uHDB7cQ1op8/vxZm7sGuAESYDTg/fv3+oTpTSGPHz8O0MIanz59Kq9evVKFsKUqmNkTl2kw2nvx4kVZv369TJ8+XZumFKdHjx4dIIW1jR8/XiZPnizr1q3TrjCazH0AtNnhMoA/ffokW7Zske7du0u5cuWkSJEi2sujrRIQhT5jvnz5dJ2UHTdu3KhazH1gk80OlwGMLVu4cKFUrVpV4saNKxEiRJAgQYJIoECBtPUULFgwCRUqlIQLF04iRozoEmFNYcOGldChQ6vwNWupUKGCzJs3T3kN3EeABrhKlSpCO5uONADTduJGokeProVptLlw4cIukQIFCkjWrFm1C0H7nX5a5MiRpXz58u4FMFwKA+CQIUNqa5vOa6FChaRu3brSqVMnlwjN2zp16ij9IHv27PrAo0aN6h4A+7TBRYsWlTx58qj9zZgxo6RLl07Kli2rfaxRo0Zp03DGjBkyZ84cmTt3rgqvqX8Kv4/uL5yPMmXKSKZMmfTNcgsNxvteunRJncXMmTNl6tSpMmHCBHV68CrSpEmjzg+Hwo2uWrVK+1pw4I4dOyYnTpzwd6ErvmDBAu2f0TXPmzevMnPcAmBCGxzE69ev5eXLlxoP43FhCWESILAQXfTu3VuWLl2qFIB79+5p7GwE+zwk/xTWdvjwYZk1a5auqUSJEkoNcwuAyX7wvsSSmAtD0M5BgwYp3YjXEkILgENkoTN77do1TUr4nH8fJEKsB5PEmwTnA4fsNgCjxYBsK+fOndOkA34FN4RdhtfVrFkztcOwiC5fvqyabAHsBwSuX7+uJgGNQVOSJ0+uEQZBPgzOKVOmqCaTVmMqMBH21AT8sBR9iG6rwWY3DJn70KFDsmjRIunZs6eCDFkDTcZkNGnSRIgqYMrAmLl//76aF4D+Vcpq9vt+dd6tTYTZjcH6BjTqFEuWLFHbBxUWMwHtKHPmzBqbDhw4UJYvXy6nTp36kVEBsjMPjwQYe8yrD7eNkAwPDjOR9JTQDV4XGRZEOuhHMMWvXLkiDx480M8401x4JMC85kQI1IjhzxKLEqYBJo4PMjPxKMUX6hi9evXSWHX//v2q+Xwe+VWN1l4t91iA0WJed8wFMTJM8A0bNmj4RuoMuBCZcYDYZViL8+fP1xKiBfBv1AfNAyQDZAPoM2fOyOrVq2Xw4ME6bJM+fXplKuL8SpcurRkgmo7j44G8efNGr/En2uyRGuwTYIDGZBBdMPpE9DBs2DBNQGCMo804P7I+pneYdoIQTtZnG8b95rn6+m2vANjQQMN5AfS2bdtk5MiRyqqnnEm9lqmm3Llza4RBrMzDwFGSIfrVHns8wGivT3Doh5Htbdq0SUcVqHSRhKDJWbJk0XiZc+PGjdOfMQb+uBYPy5HDKwFGI589e6bs8N27d2sVrkOHDlKxYkUtcVIrQKsJ63r06KE9P36ezwGyI4dXAmwLEAkJ4RkRROvWrXXCiY4DA5EMQ1LLIOs7f/68FoiISmxNju21fPva6wEmhKO6RmpNZxqQKSliKpiupEDO7AjdYBqszEqgyfam1V4PMNEFjgwTQN0WTaZ+jHnA6WEumNuj70d4R7kTLbbXXHg9wEZkwWuPJhNd4NzI+GhSRooUSVNrHCA1ZUI8QLMAtqkT+4wibG0l3wNcnJfRfmLImrHVePHiKcDMB1O7wOERH6P1lolwEGAAw5EZmR4RBZ1qNJhSJwlJ3759Zd++fQ7Vjr3SRBhai+YSE5MWkx5TuqSE2bhxY22z05nG/lavXl1Lnthn9rVw5PBagDEJaC3g4rhmz54t3bp1k0qVKmnCAVHFKM6TVq9du1aOHz8uDx8+dARfz+xoGBoKiAj/txU0lxoD0QDFdurFbdq0Ua1lij1KlCiSP39+ad68uTo87C7pNT+P/XXk8BoNBmDABiBiX+JZYl+6vUQHxL6ACs2JeoTRICX2Ja3GlBiFHwtgm8jAVoMJrdBCptfhTpBY0OmgnURIRnLB7iIQRKCass0NBXv4vIDLtdB+Rw6P12AjnAIcSCnscWNkbRTZiRYAltSYgg9Z29ChQ5UtxIMwsjbeAL8cXgEw4HKjvOqQtdHOli1bqrYS36K1RleDTS9IJijO80B4QMZbYAH8HwJom5E8ABB2FxvKHhSEYWRp2FniXDYXIgzr06ePpsmkyzQ/sdNor61ztAD+DwE0zogS8P44NBqfpMDQqGgRASwRA4xMCCoGdw2zYGRqfjULtg/CI00EmgfpjoET2vaAxxZYbFkDuNBa6SpjFmgREQOfPHlSHRqaywPiDbAAtlUVm69p1wMu261AWWWGg6YmpUejzkvkQHhGDHzkyJEfBRxMyp+aBZuleGaiAecMW4rmYlspNQIuaS+RAtxhQCcGJouDy4bWGpprC9Cffu2RJgKba3Qo6BRjb6mMYW+JHuhQoNmYBVJlogXDJDjDLNg+FLcGGDDQOpwSdhfHhqC9VL7gouHImImgDYTmjh07VujDQV/FTvM5hGv4hxC9EHcb9C2qckQvbsEPRuueP3+urzhxK3UFxgIY7WI7QpwZfAfKjZgH0l+GAEl/uWnIgRTZ/VMogbIH3PDhw3VOg7ibSSO3ABjtvXHjhtpR9h2GSYlpgIOGttLywTyQSDDpAweNWQ0qYyQTFHHQZv8UHiazI9j8GjVqaKWOzT3dAmA8PhrLlBAbZdJL69q1q45tkUhwI7ApeS2pL1B3oK9GPEwT828I9p44Gz4cD5q3ivk9twAY28k4APaWbIxFcxPMo6G9THjyOtLywURQ48XpEVXAqvwbQn2ZEV/WhLmCCoBPcJtJTzbNrF+/vi6eNjuLZyARKhSjtAwlhgkTRs8xwkqtl5+BWfk3hN9F24k18cAZrcXhUmQK8KO0aDBT6xTLqeXS+SXexe4aQtsnoAjMet4kskgqeRSeCOO4D/yJ2UEYSehJzI65+Wt7VxJWHThwQG0pKS+LZnSVfxHOQYkKKIIPwEfQnWZwkjQecPElRERmh8sAZmHEs0QERA9EEYwDEBYRKaAhkK4DkkA4ZL2AS2GJe/hdBukygHnqlBaJgeGXEdvajsgSFwc0Ya0I4SUxPPeA/CqDdBnALAraE4UdSHyATXnS2FaG8wFRbLeU4R4MCXAmwmxBnnbeZRrsaUCa3Y8FsBkyTjpvAewkIM0uYwFshoyTzlsAOwlIs8tYAJsh46TzFsBOAtLsMhbAZsg46bwFsJOANLuMBbAZMk467xSA6Y/BvOFvGdFeoeJkFEK8/V9GzKgaQrnt3Lnzj01F2PDO7r9lZAswO5FQajTa8N7+L2MLMEMZMaO2zX5wxl/j8hPAdF+Z9mG/BkveKKcZkgzb4dJQoMfoMMA0L+n80keDgQNZj3OWbFcWEvttGvN7NE4d/ouIAAm1lO1p+TAzE7DNLWmknA464BAY6cfROPUTwDi3f//9V0E2usF0hL1d6JCz0TSYsDcyGDkMMK0d9l6HLwC/wZJfYwANbPHixdrB8S0a/OkvItLqgacLBYqJS0t+jQFhrLETi10A+/ZD1jm/I/CTBvv9UtYnfUPgf6FUUiMzkfnVAAAAAElFTkSuQmCC;" parent="1" vertex="1">
          <mxGeometry x="396.00000000000006" y="350.64" width="17.56" height="19.36" as="geometry" />
        </mxCell>
        <mxCell id="ebaqlHpqiGm12PECkaA1-100" value="" style="shape=image;verticalLabelPosition=bottom;labelBackgroundColor=default;verticalAlign=top;aspect=fixed;imageAspect=0;image=data:image/png,iVBORw0KGgoAAAANSUhEUgAAALgAAABpCAYAAACJUelNAAAdRUlEQVR4Ae2dB1QV1xaG80qeLy+J76WYGI0mGpNoEmNiLLEbW0QFxWDFSuy9ROwGuyhYscTeu6jYGxYsIIKioCBNQBBEOrffy//Wf3DMxRiBKALXM2vNun3uzJ5v9uyzzz7/eQVykRawYAu8YsHHJg9NWgAScAmBRVtAAm7Rp1cenARcMmDRFpCAW/TplQcnAZcMWLQFJOAWfXrlwT0CPCsrCzqdDpmZmUhKSsLdu3cRGhqKW7duyVXaoEgzcOfOHcGsXq+H0WgEWVaWHICnp6fj3r17CA4OhpeXF9zd3bF161a5ShsUaQaOHTsmLkCVSgVCbjKZFL5/z4PzzcTERNy+fRvnzp3Dxo0bMW3aNIwZM0asjo6OkKu0QVFiQGFz8eLFOHv2LFJTU6HRaGAwGJ4MeGxsLPz9/bFv3z7MmjUL3bp1g42NDezs7NC1a1fY29vLVdqgSDDQpUsXtG/fHq1bt8aIESOwZ88e4aAVL64Q/ihEoQePjIwU3nvt2rUYOHAgatasic8//xw1atRAo0aN8MMPP8hV2qBIMFC/fn18/fXXqFChgnDCK1euRFxcHBhmsy2pLDkADwsLw4kTJ0CX37lzZ5QvXx6lSpVC1apV0bx5c1hZWclV2qBIMNCwYUN88skneO2111C7dm24uroiJiYGaWlpuQO+ZMkSEZ589tlnAu7u3buLDbi5uUGu0gZFgQEnJye0atVKOOA6depg/vz5eQecB9C7d29xC2jWrJmA++bNm2A6Rq7SBkWBASZCRo4cKUKUevXqYcGCBXkHfOnSpfj5559RvXp1Ed9s2LABGRkZSlgjH6UFCt0C4eHhmDp1KhhlMB5fuHCh6LvJU4giAS/08yd3IBcLSMBzMZD8uHhbQAJevM+f3PtcLCABz8VA8uPibQEJePE+f3Lvc7GABDwXA8mPi7cFJODF+/zJvc/FAhLwXAwkPy7eFpCAF+/zJ/c+FwtIwHMxkPy4eFtAAl68z5/c+1wsIAHPxUDy4+JtAQl48T5/cu9zsYAEPBcDyY+LtwUk4MX7/Mm9z8UCEnAzA1Eng2NOqZnBEdeUFuC4PT7n+/xcWc1+Jp8WYQtIwM1ODsGmnAAHbVDUiNovHL/H53xfgZuPcikeFpCAm50nemyO9EhISBDKAYGBgbhy5QoiIiLE++Ze3Oxn8mkRtsBLDzi9MUMQrVaLBw8eCEGjS5cu4ejRo9i5cyfWr1+PU6dOifdTUlKgVqtFCFOEz6ncNTMLvPSAMyyhziLVuuixKWY0b948jBs3Tmi+9OzZE87Ozjhw4ID4nJoaDFfkUjws8NIDzrCEnptiRtR6mTlzJtq1awdKDFSuXFlovnTo0AEuLi6gth1VA+TA6uIBN/fypQLcvJHIkISgsiHJOHv//v0C4h49euCbb74RYL/99tt4/fXXBez9+/cXWi+nT58W3p6eX4nJC/p0/77fJvGfItNj4vPsrE5B///j28/K4n8bYTIaYDQaRIhnMBhh5D4x0wSI9fHfPem1si1uR2SvjCYYTcxmPZ9je+kAJxxcKcDIDAk1Fjdv3ozx48eDnprqR6VLl0bJkiXx73//G6+++io+/fRTUPdl6NCh2LZtG6KiokTMztj9RWRU+B/Z+50NlJ5tBr0BekP2sTwJnIJ8j3AbDDrodRpotRoRsmk0OugMBhi5r4BY87IPYlt6HXQ6jUjJanQGaA0mGIzZF0tetvG071g84L97v5w5bnruGzdu4ODBg5g0aRKaNm2Kjz/+GG+99Rb+9re/4ZVXXhErn9OTU/6rZcuWQjiGstEUb2SOvKAA/+N+G2A0aKHXa6HW6JCh1oEw0HO+6MVg0EOnVUGtSkdGRjrS0tKRlp4JlUYLvckEQ1aWAD0v+yW2pVFBlZmOzEwV0lU6ZGh5AWffEfKyjad956UCnFDGx8dD0VakEOPYsWNha2uLL7/8Eu+++64ISQg113/+859C065KlSoCbiok7dix45EHZ/z+IgA36LTISElA0t3biAoPwY3gCFwIjEFwdBKS0tRPO78F8ll6yn3ERgQh+KoXLp07hcOHjuDoibPwC7yN6KQMJKn1UOnzduGlJiUgKuQ6blw+C79rN3DxZiz87qQjOkkjIH/WA3ipAGdjkpkSpv0o4UXZubp16wrVo3feeUeEJISa3vsf//iHeE3v3bhxYxGe/Pbbb0JVlxkXws2Y8UUArlWlIzH6JsL9TsDn7DHsO+aF5fv9cdw3AnfupT4rA/n+fXz0bVw/fxDHdyzFykXOmDhhEpxmzseW/SfhE56AiCQ1ktX6PG03NiIYPifcsW/9QmzdtR+rDl/H1kvxAnJ68mddLBJw89s742SldzIkJETkt5cvX46+ffsKuWcl1v773/8uwOYjIef7ZcqUwRdffAGmCik0yguD4Qkbp4yJlf951pNg/ntlm9y+0aCHQadB2oNYhPp74rz7cuxYvwyuq3ZgpNtJbDh2A0GRieY/fyHPo4L94LVvJTbMG4Gxg3qgTas2aNexNya7rsbOC7dwOTwRMcmZosEpGp1P6fkNu+GLw5sXw23KIMyevwzj1nhhzsEonAhKRooqbxfJ0w7aYgEnIISbOtAUgWRjkuLnFOwnsNQxZ8zNhiSBZkhCr/2f//xHxNxfffWVUCWl/vmiRYtEipDzEDHE4QVT4IAbjdBmpiDjQRSigi7i+I5lWDy5Hyb+MhSDJy+E/SwPLNnnh6thCU87vwXyWXigN05uX4jlk3uifxcr1P6uOr6r0xSdB4zHpGV7seWEP66Gx0FjzIKeGZGnAB7ifwHuK2fBeUQXjJ82DwOXnMTE3RE4GPAAyZkS8CeeQHpBpXeSQPr4+IheSYowMlPC/Da98xtvvAF6bMLNsORf//oXGKoQfEruTpgwAdu3bxfzECnd9YRbCU0Ub/vEnfiLbyrbpPfOSIpBYsQVXPPcjt9mDkPv1rXQ5sdmsOrliObjdmDmNm/4BMf9xX/66z+7fdULh9bNhMuItuj0Yw1ULFca75erhOpNOsJ6wGxMXbEfJ3yDka43Qc2MiOnPa3eCLp/B1oUTMNnBCkMcf4W98yEM2xKKPVfu40GGBPxRmEAwxG3daBTZDRZIsfPG29tbzCPETEmnTp2EEu6bb76JEiVKCI9NuJkKpOf+4IMP8O233wq4Oa8L04dXr14VdwDeCQrWa5uQZTKJ1JsmMw3pSfcQEegN35PbsWvFNIzt0w5NqpVHje++w/fth6D+qC1w2nwRl269eMBD/M/iwOqpmDPYCrZNqqFM6Xfw2tsfoPxXDVC9hQP6jl+E9R7nEBKfhrhUFTK1huz8+MNqTPNLK9DbE5tcxmB89yboP3IiOsw8gIEbb2OnrwRc2EnxeHykZ2XqjgVTbEweOXIEy5Ytw7Bhw0QWpFq1aihbtqyA2zws+d///ocPP/wQ33//PXr16oU5c+aIbAkvDs5HlJycLPLe5v9lfpKe9TnBNpkMMBl1UKUl4kFsKO4EeePUvg1YOW8CxvbvBLsWtfFtpQ/wZbUaqGFbRAAf0gq2LWqgbIVyKFHqQ7xXoSoqfd0IbbsPx1S37fC4HA6/8AQkpKr+tPNGAp4LPebQMbPBVOD9+/dx8uRJkSmhfjmFzxl6MARhnK3kuPlI781whfDTw3MGABZbsXHCuwBDncdDEv7n81wE4EYdjHo1UhIiERV0AVdPbcfqeRMxoIs1mtb8CtU//wgff/AOPvmqBqq1LSqAt4Zt67ooW+VzvFq6PEq+Vw7vl/oQdRrboLfjfMzbdRkHfcIQEZ8KvTFLQP647STguZCkeG3GxpyUlo3Jw4cPi9km+vTpI1J87KRhSGIONhuXTAFyciJOmkXPzQaoh4eHKI8l3KwcfBGLUa+FLjMZ6qS7uB1wCcf3b8PqRXMwc7Ijhg/sC/sOtrBuUgcNq1VA3fr1Ua/TyKIRogyzQXvbFihXsyHerFwbFb/4BrWrVkaL5i3xk8Mo/Oy0Gst3eeLyrSgkZ+qg0tJZ/D43JW0rAc+FMHpYem2Wsl6+fBmcZYKNQ04fx4IppXfycc9Nj86Z4Zo0aSJy3EwdspiKoQ1DEsLNbb+IxaDJhCoxCimR/vA6shvznWfDwWEARo4eD6cZczFt+gyM7m+PPq2ro2Pb5mjVewwajC4CMfhwW9h1tsNHP3RG6Xp2qN+sJXrZNECXdj+iZdtOqNd+IMbNW41D568h6kEmkjK10D3W8yoBf0iYeSjC52zwcSWI7MCJjo4WMy6zcUhomb+mhybYSo5bSQUy/q5YsaLw3MyHr1ixAr6+vqLwSmlMvgiwlf/Qq1KRfvcW7gd6Yt+mFRg6eARqN/oJfUc4Ycl6d2zfewDL507ArL5NMKKXNToNmoCGv2wt9Eam80g7dOjZGxXaDEdF6+Ho2MMBc0bYYVj3VuLOWeaLeug2dBLW7vPE1TsPEJOUAbUuu35HOZ8S8McAJ9T0rMqwMs64zNlrmc6bPHmyKHVV0oCsBCTchJwrO2/KlSsH5rg5OSgLrNasWQNPT08Rligz4PI/XuRCD65+EIPUO9fhe+4k1q3fjEkzl2DVZnccP3cZ57zOYduy6XAZ1Byjelujc5EC3AEVrEeiSscJGOg4GduXOcFl4gB0bWeFql9+C7tuAzDRdT02HLmCC4FRosGpNWaJ1CEhl4CbAU7wGHOz1JUNSdaUsHyVmRJW+rVp00bUlPz3v/8VNSRKpoSPbGAyg8JMCXPh06dPF4MbWN9tPm+i0qB8kYCbWE2XmQJNUixioyIREBiMs76BCAgOR1TsPYQHB+DoJhcsGd4Sv/xsgy6Di5AH79UHFdqOxjc9Z2LS/BW4dGoXdv02G6N7/YTGVT9DmzYd0HnwdIxasAfbTvgj7F4qMnQmaA3Z5bAS8IekEW5mSdiYZAMwKChIdJ0zvBgyZIjomWRMzbDEvDHJLAkrBAk3Y3LO5cm5E9mryW5381HzLxJq8//KMhph1GlhUGdAo1YjXa1DssaITK0eer0OybGhOLdrMZaPagXHPm3RdUjRAbxj776o2G4MavZ1hfO63QgLvoLzBzdh4bh+6NG4GtpZtUFT2wGwGTgXc9cdxsWgGNxNViNVpRf14ze8PbFR5sEh4m0OLWO8TTDd3d0xY8YMUTDFUlfWbL/33nuiw4aAM95meMIcNwcwtG3bVsxVzm53Zkr8/PxEzE2PzYuHt8vCWrLThAaY9CyH1UOjN0KlN0GnZ4ls8QC8Vv+FcNl8GFFRobjpcwIeq+fAdURnDLDvgKbNbVHfqjeG/7oUGw/54kJQHCLj00SD87oEPBs7QshMCetKvLy8MHv27EchCb0z4216a/MGJUMTduBwCBpDEg5WuHDhwiMpCDZQlcZOoQIueviyezJ5nBzNwnQaR8xkFRfABy7G/J2nEXc/EfGRgQg8uwunNkzFr0N7oGmduqjyxfew6zkGU5Z6YNvJIPiHJogLOeBlBFyBjiebEDJtxxw3Mx30vpzMk6EGa7gZknAecsVjE2q+pjevVKmSGMjAAcS7du0Sv+doHIY5SrlrYXntXP+XdxSTETAWDw9ee5AbFu72QnxyGtISYxAXfAHBZ7dgxczR6NKyMWpXrYY2tr3Qe8xiOK85iuPewXiQoYHv+RNYN/eXl6urnmAzdGC2hI1JxttsTDLeHjVqlJhV+bvvvsP7778vYKbnVnolWUDF92vVqiUak8yJs6aEHUBsTPIuoMDN/ymyS7EFPB3qjCSkxociPuQS9q+fj4n97NCx2fdoa90eVp2GYtAkN2w+cA7h99Nw1vMoVs0e9fIBTrjZAGSXObvdOfqGOWsWQ7FYij2RSjiiNCr5Hjtw6LmZKWHPJGUgAgICRH0KLxrzmLsww5JcL6xiC3iGGFan16RDkxYP3+PbsXbGQIyx/wHtrZrjm+9bok3X4XBdswdX7yTi6LFDWD5z5MsFOHsmGZJwzCRHu1OnpF+/fqIDp3z58iLWVnomCTlTgAxL2CXP0Tes9ybczJSwMclOIIYlSuhTpMFWyC92gC/Fwt3nEZ+SCY6zNOg10KvTEHbtHDx3LsGqmUMxrFdH/NCgMX60sccwJze4HfDH/N82YJrjADh2b4K+IyfC7mWoJmQakPE2laWmTZsmut3puT/66CPhvQk1Y256bsbcDEs4npJwc9wkO2+UbnfWg7O6kHcECbhy9Tzbo1Iuy55MJU1Ye5AZ4OJOaYBRr0FSbCgiAs7g3L7VmDdhMDo0q4vmTX+EjcMkdJy2Fw5jXTCkfw+M7t4EP1si4IROibkZktB7swOHaUDmqzt27Ch6Hhln02srYBNyws1whVkUDgzmGMu1a9cKz887ANOKxQpqc+6egwc3P/bs59kZmt/fB/g3XPOz5Aa40DV5mBkyaFKhTYtF9M2L2LZkKoa0b4BWjeuhdqs++KSjC+p2HI0OHWwxqHMj9Bg2Hu1neFhWPTg9K3sm2U1OsFmqynQeByhwtHuNGjUEwIRb8dwEm/ltgk3PbmNjg8GDB2Pp0qWiMUq4C7qGOz9A/KXvPhfAs1ONzKUb9FphZ9qa+XWhO2ICONimIAFnCbBBnYz7UUHw3LMKi8c7YKB9WzRtZYfydTujSh0r1KtbG60aV0erniPRespeywKcBmeBE6FkTQgzJQwzrKysRCmreRqQ3psrG5OsKalevbpoTHIoGuNtDlBgnpx3Ad4N2KD83Vvl0039JSqf44+eA+AcRMFSXL02Exp1htAwSU/PgEpNyI1gYR+rVwsS8CwxkEOL9KRYBF46jCPrZ8PZ0QHtWjVF6fKV8EHZj/DxR+VQpfKnqGU7EE3H7y7+gCshCdN1TAOyZ5IFUyxZZbd7ixYtRCkrG49KhoRg87USklDugSWxDGN2794ttsF4m2GJRSzPAXCDTgVNWgIyEsIRd+c2QoJv4kZQMCJj4pGYpkGGFqAyQ36zpXkNUbIF3OhYTNCqUhEb6ofAMzuwZdEE9OvYDJXLlMSHb7+OUm+XxLuly+KLH39GI8edxR9whiXswKHnZn6aYjoUveToGw4+YE1JqVKlRMxNwAk3QxQlBdigQQMMGDBAjHZXut2p6c3t8Y5gEctzAJxwJ0f44e4VD1w4sh1bNq7FijWbcNDTBwF3UnA3DUjVZHvx/Ngs/4BnQa9VITUhArHBl3B6zwrMGdEV7WuURa0Kb6H8u2+g5Ful8FnTnmjwy/biDzghVITmCSjLVhmScNgYeyAZgjDONvfebGRy8EL9+vXF6BvG2xzgwNCGnTdKSFKkO2/yQ9FzAJyeO9Z3P4L2zsYm17EYOaQfuvcdhrm/7cQR/zgEJQDxGS8GcJNRD70mFZq0WIR4H8bOucMx0boy2n3zHj5773WUeK0kKjayR/3R24o/4OaDFNjLyKFlLIhi3Qjz2YrXZqOSIQlHu7PGmxcBG5PsqmcakPltJd5mrG1RixngKfcicMljNdb/2hXTRvXEwPGz0M7JHfN2++LK7fg/PeyM+FDc9XHHjd3TsHrGYPTp1gHWdvaY7LoOe7xj4B8H4cUN+ezQDbt+Ece2uMBtSh/0HT4atXpNRauxa7HygA/up2ZmDzB+7HxkCTVaDYy6dMSH+uHSbjdsnWyPcV1/gFXtL/FpxUqo234Q2jrthePOcOy/moik4qqLQigZL4eGhmLVqlUilmbvI8MSxtlKSMLnbEyyzJUDgjmgYdOmTTh//ryYcYGZF6Xb3XIB1yPtfjSuntoJ90Wj4DbLEVPmLcfARcex6sgN3HiKslVmQgTi/A7ipsdcrJk1DH3tbWHdzg4T567CjovR8I0FolOB/AIeFewPL4/V2LRoAiZOn4WfHBejz7xd2O55DUnpD0fQPw54FovJqBygRUZiNKIDTiPgyGpsnj8eY/p0Qtsfm6H7UCcMXnIccw9F4aRQtnr2IYOFomzFhiBDC9aYUBKNaT5FspihCT034aZWyddff42uXbuKnkn2avKiYIijdNz8qfsq7h888uAGZCbdQ7D3UZzc5IytK13htnYHpm26iN1eobh9N+VPj5TjPOOvH0fI0SVY5zwS/brawNraBuPnLMfW81HwvgtE/QXA4yJvwu/0HnhsXohFK1ZihOtmTFl7DEd8gpGaqXmiBzffySyDBib1fZhSwxHg5YENi6ZjwpC+cHJehllbL2LN2ThcCktDuiZvAp7m2378eaEATkDZW0nIGYNPmTJF5LypzU2PzZCEYyqZKaEgPUtj9+7d+2jcpMV6bfOzIwBnotoIbUYK4sKuI/D8QVw8fRgnznpj7/nbuBwSj3tJf5410qQmIDmSjcz92LN6LsYOdkDPbt0wx20dPPxicC0BiM3IvwdPuR+LyJu+8L9wFMdOncbmwxew5+x1BITFQaXViXLfp8m1ZRl1MOnSYFJRWdYfXsf2YefGNXA/eBIeF2/j7K0UhMarodblM3Yyt9/D54UCOPPTrA3huMrr16+LXkvWm1C6gVWA7LyxtrbGoEGDhE4JNbyZSuT8OIrwJRuTFheWmJ8gAi5Wk8hlZ6Y+QFJcJO7dvYPo2HiEx6UgPkUFlebP5c1YC6JKikJK1FWc2LsJcyY5YuTgwVixfhtO34xFSApwX53/RqZWnYm0pATcj4tCVMxdhNyJQ1jsAySmZsJg1vdgfjjmzxmPE/IsgwqUYo6LikDorZsIj4xBxL0U3E3WIlXFzqhnb1cVCuDmB0spYo6LZMXg3LlzRTxuZ2cHR0dH0enDxiRVYZUabovJkpgboYCem9iLqEqCJjka3qePYuUCF8yc4oQd7gfhFxmPaBWQosvuzSygXSj0zRY64Mxd0zMzHqdgDwcQMy5nbvzMmTNCp4SzMShhiQQ878yYtBkwpMZCE38L173PYM+O7VizbgtOel1GWHwKknSAih09z+4o875TL/ibhQ44wWVWhblsjrZhiSzDFtalEGy+z7SiEpJYdFjynE++SZ0Cw4NwaKJ8ERbgjTPnLuDQ6cu4FhyJxDQVtKbs+FsCDryi2J6gET5OucfOFvY+siaEmRCqSjFGzs9CYLlN895NenVCLb12fiz5x++aNGkwJEdBFxuAuIibuHHrNq7cisade8nI1OjFRFF03hbswAt/GkECrkBOoJlh4WoOt/Taf4Q3L++IdJwqGYa0OKQlxeNeQiJiElKQnK4SI9oVuCXgBezBFcgV0M3DEeWzvJxQ+Z2cFuAclNkZi+zpB3mX1D+cz1LY9aH3loAXIOA5T4l8JS3wfC1Q6I3M53s4cmvSAjktIAHPaQ/5ysIsIAG3sBMqDyenBSTgOe0hX1mYBSTgFnZC5eHktIAEPKc95CsLs4AE3MJOqDycnBaQgOe0h3xlYRaQgFvYCZWHk9MCEvCc9pCvLMwCEnALO6HycHJaQAKe0x7ylYVZ4JkAd3Nzg4ODw6MxlOvWrRMimorQvHzMFtyXdig8O3Ae1V9//VVMUlavXj0sWLBADHan8BTFopTliQMeCDgli6lI1bJlS/A1xS85zlKu0gZFgQHqzHN8b4UKFYRKQ74B50h4apdw+mxnZ2dcu3ZNiPLwypGrtEFhM8DB7JwkmDODcBLg+fPn592Dc3AwdUsoPl+zZk0MHz5cTKlNgR65ShsUBQYox925c2cxMRl1d1xdXXPMbP3UEGXx4sVCdYrun1cIlWEZk/fv31+u0gZFggFKbHNGPmpc5htwzhrMKUbKlCmDEiVKiDkrKaBJ2OUqbVAUGKBKWsmSJYX8dp4B53yTPj4+QruE81C2bt1aCGRS2rhhw4Zi3vhGjRrJR2mDQmeAPDJ7QgFXKkBs3boV1JKnPiYHtitLjiwK57+JjIwUWoGch5LZEzYwKb/m4uIiV2mDIsUAFdPI58aNG4WmPFOEVG5g+lZZcgDO/CGvAIIeGxsrtCcKu7Us/19mbHJjgMJSZNZckuQPgFNugPIDvAIIOZWnOM8O9b7lKm1QlBmgojGZpedWpEmeCDg/5JcUoR6qUFF+Ta7SBkWZAXMB18f1dh6FKArx8lFawJIsIAG3pLMpj+UPFvg/3vxXBRQiS8UAAAAASUVORK5CYII=;" parent="1" vertex="1">
          <mxGeometry x="62" y="192" width="35.05" height="20" as="geometry" />
        </mxCell>
        <mxCell id="ebaqlHpqiGm12PECkaA1-101" value="" style="shape=image;verticalLabelPosition=bottom;labelBackgroundColor=default;verticalAlign=top;aspect=fixed;imageAspect=0;image=data:image/png,iVBORw0KGgoAAAANSUhEUgAAAFwAAABmCAYAAABGDvaTAAAMrUlEQVR4Ae2dB6wVRRfHH71HioQWQHov0gSUCEFQCB0iHUITQhUUCCACIggmoAjSQyihN2miEHrvvVep0nsvx/zOl4H9rvfC2/fuCvfd2WSyd3fvzt397dkzZ2b+MzdC7PKfEogwv/b8+XOxyRsGhjHrfwF/9uyZ2BR9Bk7jDQgc0E+fPtX05MkTsck9A8PvtcCB++DBA7l9+7ZcuXJFzp07J6dPn7Ypkgz++usvOXPmjLK7c+eOGivwMWLn8sKl8CUg79+/X/744w8ZP368/PjjjzZFgsGQIUPk559/ll9//VWWLl0qR44cUcPFgIHuXF4Av3z5suzZs0eWLFkiAwYMkDp16kjx4sVtigSDUqVKyccffyyffvqp9O/fX1auXCmXLl1S6I8fP3byflloXrhwQTZv3iwzZsyQTp06SYkSJeTdd9+VTJkySe7cuaVAgQJSsGBBKVSokBQuXDgsE/duEjzy5Mkj2bNnl6xZs0qWLFkkW7Zs0rZtW1mwYIGcP39ebty4Ia6Ap0+fXi28Ro0a0qRJE2nWrJm0atVKvvjii7BM3LtJTZs2ldq1a0vFihWlZMmSCh/jhM38+fPVPbsGzlOrWrWq9OjRQ3766ScZMWKEjBs3Tv07Pj7cEvdu0rBhw6R3797Spk0bqVatmr7xadOmlebNm8vcuXPdA+ep5cyZUxo3bqyFAU+NAmHVqlWyevXqsEzcu0mLFi2SsWPHynfffSdYO7yiDLxz585CQZA/f35p3769PrEdO3bIwYMHNUwkBArH5AyT9+7dqwHGmDFjtMwrW7Zs1IF36dJFPvzwQ3n//felZ8+esn79erl48aKWur5x5f8VwTF8w1mZuX79uuzcuVP99bfffiufffaZBR7s52+BB5voa/L7T4D36tVLNmzYIH///bdQG7Uu5X8tiriUXbt2yW+//SZ9+vSRSpUqBcelWOAvzd7Xwi3wl2w8+WSBe4I1cKYWeGA2nhyxwD3BGjhTCzwwG0+OWOCeYA2cqQUemI0nRyxwT7AGztQCD8zGkyMWuCdYA2dqgQdm48kRC9wTrIEztcADs/HkiAXuCdbAmcYo4M6bCebnwPjcH3FeV8i3h3MzdG6QEM/cv39f+1CvXbumnR9nz57VDuyTJ0/KiRMn9DNaPvpar169qt/lHM51gnGPNfAZznxjBHB0eIhKAccNoV46duyYSvA2bdoka9eulRUrVsjy5ctlzZo1snHjRu114TsoxziHc82DA1AwlxgB3NwEkO7du6fQEJUiyUB6B9x58+bJ5MmTVYQzcuRIGT58uGpCJk2aJHPmzNHvbNmyRc/hTbh586bcvXs36NZurpV1yFo4Fw/sR48eyalTp2TdunUye/ZsGTVqlAoju3XrptqYli1bquCmUaNG0qBBA5XetWjRQtq1ayd8p1+/fipY4lysnweGqzGSYX4nukuMAA5s40awaIQ16GLq1q0rZcqUUQlZvnz5VAXmK5zMkSOH5M2bV4oUKSKlS5dWrR/n/vLLLyq5xt/j08k/rIEbyA8fPlQrxLLpkJ0wYYJ06NBBZb+oVJGOJUuWTBInTiwJEyaUBAkSSPz48V8ktjn2zjvvqNKXB4NkmLcBvTbuCOhIsfktftdYaVSs3ZzLOqRcChaHjyUCATR+GPE/ytRy5cqpNadLl05hAzVevHgSN25ciRMnzr8Sx3gYSZIkkTRp0ui5SK1R+w4cOFDz3r59u/4Wv2ughxVwrA3YhHVoqVHnfvLJJ6plTJ06tVowgGPHji2xYsWSiIiIVya+Q+KB8AbwANBv16xZU5B5UOjyW5QT+PSoupeQtfBbt27J4cOHVYGLDLp+/fqSK1cutdBEiRK9Eu7r4JvjvCH4dkZyDBo0SN3Lvn37dAwOlh6VJWSBo+JC8jx69GiNMj766CNJmTKlugUs20CLzjpp0qRaBlAWICfmwU6dOlUfNJYelSWkgJuLxYdSkDG0BVk0qlOE/9GB+6pzKXSRXlOQdu/eXcNO4n1zPW7Am3NYv/WFJr6TgpLYmFojhSQjBxg3hN9+FbToHMOfEz6i32Y0x6xZs7QGy7W4tfSQAk48zPhPquGMpkDoTwzNwK1g+W1/D4aCNHny5JIxY0Yd9ES4SKWIUBFLd7OEBHBzkYxZJN6m/YNaJAOSUqRIoZFFZCIRfzAju88ZvXzzzTd6DYxmoAnAzWLuhfVb61LMRfIKMw6UAUeMGKhQoYLG2ZEN/SIL19/3+A0KY0JGaqKMVTpw4IC+cTEWOKEgrX00PFHB+eCDDzRe9gco2Pt4g4COpbdu3VoL7K1bt6ovj3HAiUpIjFlctmyZ1v7q1aunA0yxuGDD9ZefEzhjTWlC4OFTGXKzmLf1rXYpwCZCoWbJq8xogVq1ammt8k0Ap7WRMoR2dcoUN0tIASccZGwj1fgqVaroyN03AZy3i0oQD5+eIzdLSAHHwn///XctMGnjoGXvTQBv2LChjqjGvVEBc7OEBHBzkcaHf//999rWTZX7TQCnFZERxIwoZnCvm8XcC+u3Niw0N0SUQvvJ0KFDtW2jWLFi2r7tr5AL9j5noUkvEV1zDPalO87NElLAicMZPj5t2jRt06Cq7WUN0/nQAE5ISNs5HRwM9aMdnkY0N0tIAaemSbWeV5lCi3YNOg2cYLz6TAwObFwYDVhcw9GjR9UtxFjgNBShIWGKp+nTp+vcKxkyZNAusmA1yfp7YMDmwdJmQ5fdDz/8oGPkkWAw0NfNElIWTiyOHwc6Fkb1nnZwZtOhcckfrOjsM36b1sLMmTPrRDtMkzRx4kSNTijEeevcLCEFnIulpwVLp7WOSIGIgbZqLD06cP2da/w2HcxFixaVzz//XGfr+fPPP9WVcB0YgZslpIA7bwyhD5OZ0cmLxoQQEUvEtQDKH0C3+yiQ6UVikh262fr27avx9+7du7VZFtgAdLOELHATwy5cuFBdC/NGpUqVKqhdbPhsJkcjb+Z8oSOZpmF8N9ZNk0PYAMd30gFA1XrKlCnqWpigC4sMVmWI/BAS0TJJ3H38+HH12U6pRNgAp/eHGUCBjiyNCbuYnIv+TdwLPh34uAXCOWJoog2nu+Gz8dM8JL7LW/Lee+9pw1j16tW1zxQtIoU0MbcTthtXYr4bsi6F15nXGqUrLXbU+ggV8bM0LjFhF/2QAERZZcRATuh85kFwjI5ivovUAiERsgvyopKFfI42EzPXi4FmILpZm3NZG7cYcvOlAJ2WRMAjCmJmS2aSQxhEAxchHfMn0tFMlxxRB4AJJYGM/oQJGpkQDZkbHQzE2vQsoUMh/KPv0m1E4u9BxAjguBeq/XQwE0EsXrxYZclMx/rll1+qq8FimayycuXKWgiWL19eZ+Ch1583gskZu3btKoMHD9Y4m1ZJmhGIhoBtCkl/EN3sixHAcS/4VgpSrBFhPZPlIqUAPuIdBEPIKrB+JmekTR15MoDx0Ugf6FDYtm2bnkseNAcDO7p+2/lAYgRwc0POm0F7iMUTxWD1+Hg6DHA56L8RESG1wJLpKqO5AMg8MDsCwhB9zdoJHKvEzeDbiZsp9A4dOqRg6fmnpQ//zD6O0VxAswGwcVHOvF7zs64OO/MN2ULT3LHzZvhsXA0A8cFYPW4HqCQ+s49jfIdC0VRmnHmZ/IOxduYb8sCDAcTrPCxwrwn75G+B+wDxetMC95qwT/4WuA8QrzctcK8J++RvgfsA8XrTAveasE/+FrgPEK83LXCvCfvkb4H7APF60wL3mrBP/ha4DxCvNy1wrwn75G+B+wDxetMC95qwT/4WuA8QrzctcK8J++RvgfsA8XrTM+BMq8GkXcz0wIxpZkwj0jQ6d02/YritkV2YROc2Uo6ZM2eqWBTRaJT/3hEBDrptlE/8XS8qV3rJEUQiR0CnF44JdYBJaGcwRAT+X3/9tSBOihZw9H3IfflHVHR/ZhZMfoixOuGYGBdkEhOXYYiMau7YsaPOxxIl4MBlpBejBlCxotf76quvdN4oBkOhdEIJFY4JuCbx1+pMYBbtv+gFOLNd4r8RTaJiRWeNlJgh22j8GEkcjol7NwmdI0pdZsVASIro1JWF45t4TRgpgE+i0GQeQITtQMe9MIMPfp0fCMfEvZvEX6wznAXlLjOGwgg+uBfmFKCsYwIcRErOJcJsIBVjlhz+dhb9HlPP4UoY18gsOogomQmChPY6HJO5f9aMwoMLboXEZ/aje0SOB2yiOF+Z9AvgPAlCPiRczCOCbg8NHyfzh8tEKSYhngzHZO7frOHiTOxn/D6iUiR4aCSJ3Z3LC+DOnfazdwQscO/Y+s3ZAveLxbudFrh3bP3mbIH7xeLdzn8A6B4Zh54B42IAAAAASUVORK5CYII=;" parent="1" vertex="1">
          <mxGeometry x="193.02" y="561" width="22" height="24.39" as="geometry" />
        </mxCell>
        <mxCell id="ebaqlHpqiGm12PECkaA1-102" value="" style="shape=image;verticalLabelPosition=bottom;labelBackgroundColor=default;verticalAlign=top;aspect=fixed;imageAspect=0;image=data:image/png,iVBORw0KGgoAAAANSUhEUgAAAFwAAABmCAYAAABGDvaTAAAMrUlEQVR4Ae2dB6wVRRfHH71HioQWQHov0gSUCEFQCB0iHUITQhUUCCACIggmoAjSQyihN2miEHrvvVep0nsvx/zOl4H9rvfC2/fuCvfd2WSyd3fvzt397dkzZ2b+MzdC7PKfEogwv/b8+XOxyRsGhjHrfwF/9uyZ2BR9Bk7jDQgc0E+fPtX05MkTsck9A8PvtcCB++DBA7l9+7ZcuXJFzp07J6dPn7Ypkgz++usvOXPmjLK7c+eOGivwMWLn8sKl8CUg79+/X/744w8ZP368/PjjjzZFgsGQIUPk559/ll9//VWWLl0qR44cUcPFgIHuXF4Av3z5suzZs0eWLFkiAwYMkDp16kjx4sVtigSDUqVKyccffyyffvqp9O/fX1auXCmXLl1S6I8fP3byflloXrhwQTZv3iwzZsyQTp06SYkSJeTdd9+VTJkySe7cuaVAgQJSsGBBKVSokBQuXDgsE/duEjzy5Mkj2bNnl6xZs0qWLFkkW7Zs0rZtW1mwYIGcP39ebty4Ia6Ap0+fXi28Ro0a0qRJE2nWrJm0atVKvvjii7BM3LtJTZs2ldq1a0vFihWlZMmSCh/jhM38+fPVPbsGzlOrWrWq9OjRQ3766ScZMWKEjBs3Tv07Pj7cEvdu0rBhw6R3797Spk0bqVatmr7xadOmlebNm8vcuXPdA+ep5cyZUxo3bqyFAU+NAmHVqlWyevXqsEzcu0mLFi2SsWPHynfffSdYO7yiDLxz585CQZA/f35p3769PrEdO3bIwYMHNUwkBArH5AyT9+7dqwHGmDFjtMwrW7Zs1IF36dJFPvzwQ3n//felZ8+esn79erl48aKWur5x5f8VwTF8w1mZuX79uuzcuVP99bfffiufffaZBR7s52+BB5voa/L7T4D36tVLNmzYIH///bdQG7Uu5X8tiriUXbt2yW+//SZ9+vSRSpUqBcelWOAvzd7Xwi3wl2w8+WSBe4I1cKYWeGA2nhyxwD3BGjhTCzwwG0+OWOCeYA2cqQUemI0nRyxwT7AGztQCD8zGkyMWuCdYA2dqgQdm48kRC9wTrIEztcADs/HkiAXuCdbAmcYo4M6bCebnwPjcH3FeV8i3h3MzdG6QEM/cv39f+1CvXbumnR9nz57VDuyTJ0/KiRMn9DNaPvpar169qt/lHM51gnGPNfAZznxjBHB0eIhKAccNoV46duyYSvA2bdoka9eulRUrVsjy5ctlzZo1snHjRu114TsoxziHc82DA1AwlxgB3NwEkO7du6fQEJUiyUB6B9x58+bJ5MmTVYQzcuRIGT58uGpCJk2aJHPmzNHvbNmyRc/hTbh586bcvXs36NZurpV1yFo4Fw/sR48eyalTp2TdunUye/ZsGTVqlAoju3XrptqYli1bquCmUaNG0qBBA5XetWjRQtq1ayd8p1+/fipY4lysnweGqzGSYX4nukuMAA5s40awaIQ16GLq1q0rZcqUUQlZvnz5VAXmK5zMkSOH5M2bV4oUKSKlS5dWrR/n/vLLLyq5xt/j08k/rIEbyA8fPlQrxLLpkJ0wYYJ06NBBZb+oVJGOJUuWTBInTiwJEyaUBAkSSPz48V8ktjn2zjvvqNKXB4NkmLcBvTbuCOhIsfktftdYaVSs3ZzLOqRcChaHjyUCATR+GPE/ytRy5cqpNadLl05hAzVevHgSN25ciRMnzr8Sx3gYSZIkkTRp0ui5SK1R+w4cOFDz3r59u/4Wv2ughxVwrA3YhHVoqVHnfvLJJ6plTJ06tVowgGPHji2xYsWSiIiIVya+Q+KB8AbwANBv16xZU5B5UOjyW5QT+PSoupeQtfBbt27J4cOHVYGLDLp+/fqSK1cutdBEiRK9Eu7r4JvjvCH4dkZyDBo0SN3Lvn37dAwOlh6VJWSBo+JC8jx69GiNMj766CNJmTKlugUs20CLzjpp0qRaBlAWICfmwU6dOlUfNJYelSWkgJuLxYdSkDG0BVk0qlOE/9GB+6pzKXSRXlOQdu/eXcNO4n1zPW7Am3NYv/WFJr6TgpLYmFojhSQjBxg3hN9+FbToHMOfEz6i32Y0x6xZs7QGy7W4tfSQAk48zPhPquGMpkDoTwzNwK1g+W1/D4aCNHny5JIxY0Yd9ES4SKWIUBFLd7OEBHBzkYxZJN6m/YNaJAOSUqRIoZFFZCIRfzAju88ZvXzzzTd6DYxmoAnAzWLuhfVb61LMRfIKMw6UAUeMGKhQoYLG2ZEN/SIL19/3+A0KY0JGaqKMVTpw4IC+cTEWOKEgrX00PFHB+eCDDzRe9gco2Pt4g4COpbdu3VoL7K1bt6ovj3HAiUpIjFlctmyZ1v7q1aunA0yxuGDD9ZefEzhjTWlC4OFTGXKzmLf1rXYpwCZCoWbJq8xogVq1ammt8k0Ap7WRMoR2dcoUN0tIASccZGwj1fgqVaroyN03AZy3i0oQD5+eIzdLSAHHwn///XctMGnjoGXvTQBv2LChjqjGvVEBc7OEBHBzkcaHf//999rWTZX7TQCnFZERxIwoZnCvm8XcC+u3Niw0N0SUQvvJ0KFDtW2jWLFi2r7tr5AL9j5noUkvEV1zDPalO87NElLAicMZPj5t2jRt06Cq7WUN0/nQAE5ISNs5HRwM9aMdnkY0N0tIAaemSbWeV5lCi3YNOg2cYLz6TAwObFwYDVhcw9GjR9UtxFjgNBShIWGKp+nTp+vcKxkyZNAusmA1yfp7YMDmwdJmQ5fdDz/8oGPkkWAw0NfNElIWTiyOHwc6Fkb1nnZwZtOhcckfrOjsM36b1sLMmTPrRDtMkzRx4kSNTijEeevcLCEFnIulpwVLp7WOSIGIgbZqLD06cP2da/w2HcxFixaVzz//XGfr+fPPP9WVcB0YgZslpIA7bwyhD5OZ0cmLxoQQEUvEtQDKH0C3+yiQ6UVikh262fr27avx9+7du7VZFtgAdLOELHATwy5cuFBdC/NGpUqVKqhdbPhsJkcjb+Z8oSOZpmF8N9ZNk0PYAMd30gFA1XrKlCnqWpigC4sMVmWI/BAS0TJJ3H38+HH12U6pRNgAp/eHGUCBjiyNCbuYnIv+TdwLPh34uAXCOWJoog2nu+Gz8dM8JL7LW/Lee+9pw1j16tW1zxQtIoU0MbcTthtXYr4bsi6F15nXGqUrLXbU+ggV8bM0LjFhF/2QAERZZcRATuh85kFwjI5ivovUAiERsgvyopKFfI42EzPXi4FmILpZm3NZG7cYcvOlAJ2WRMAjCmJmS2aSQxhEAxchHfMn0tFMlxxRB4AJJYGM/oQJGpkQDZkbHQzE2vQsoUMh/KPv0m1E4u9BxAjguBeq/XQwE0EsXrxYZclMx/rll1+qq8FimayycuXKWgiWL19eZ+Ch1583gskZu3btKoMHD9Y4m1ZJmhGIhoBtCkl/EN3sixHAcS/4VgpSrBFhPZPlIqUAPuIdBEPIKrB+JmekTR15MoDx0Ugf6FDYtm2bnkseNAcDO7p+2/lAYgRwc0POm0F7iMUTxWD1+Hg6DHA56L8RESG1wJLpKqO5AMg8MDsCwhB9zdoJHKvEzeDbiZsp9A4dOqRg6fmnpQ//zD6O0VxAswGwcVHOvF7zs64OO/MN2ULT3LHzZvhsXA0A8cFYPW4HqCQ+s49jfIdC0VRmnHmZ/IOxduYb8sCDAcTrPCxwrwn75G+B+wDxetMC95qwT/4WuA8QrzctcK8J++RvgfsA8XrTAveasE/+FrgPEK83LXCvCfvkb4H7APF60wL3mrBP/ha4DxCvNy1wrwn75G+B+wDxetMC95qwT/4WuA8QrzctcK8J++RvgfsA8XrTM+BMq8GkXcz0wIxpZkwj0jQ6d02/YritkV2YROc2Uo6ZM2eqWBTRaJT/3hEBDrptlE/8XS8qV3rJEUQiR0CnF44JdYBJaGcwRAT+X3/9tSBOihZw9H3IfflHVHR/ZhZMfoixOuGYGBdkEhOXYYiMau7YsaPOxxIl4MBlpBejBlCxotf76quvdN4oBkOhdEIJFY4JuCbx1+pMYBbtv+gFOLNd4r8RTaJiRWeNlJgh22j8GEkcjol7NwmdI0pdZsVASIro1JWF45t4TRgpgE+i0GQeQITtQMe9MIMPfp0fCMfEvZvEX6wznAXlLjOGwgg+uBfmFKCsYwIcRErOJcJsIBVjlhz+dhb9HlPP4UoY18gsOogomQmChPY6HJO5f9aMwoMLboXEZ/aje0SOB2yiOF+Z9AvgPAlCPiRczCOCbg8NHyfzh8tEKSYhngzHZO7frOHiTOxn/D6iUiR4aCSJ3Z3LC+DOnfazdwQscO/Y+s3ZAveLxbudFrh3bP3mbIH7xeLdzn8A6B4Zh54B42IAAAAASUVORK5CYII=;" parent="1" vertex="1">
          <mxGeometry x="520" y="527.39" width="22" height="24.39" as="geometry" />
        </mxCell>
        <mxCell id="ebaqlHpqiGm12PECkaA1-103" value="" style="shape=image;verticalLabelPosition=bottom;labelBackgroundColor=default;verticalAlign=top;aspect=fixed;imageAspect=0;image=data:image/png,iVBORw0KGgoAAAANSUhEUgAAAFgAAABhCAYAAABS4GZRAAAM3klEQVR4Ae2dBYwU2xKGLxeX4O7u7u7uDsE1aHD3IMHd3d3dneDu7u7uUC9fvdtksmzDzDLL7Mx0JxWW3p3e039Xl/519h/xcXz//l0s8RsGPqDU//7j8yTgfvv2zRIHMQA33w5TgL9+/SqW2IcBCmk3wI8ePZKjR4/KihUrLLEDg82bN8uFCxfk3bt3vimw/KTBZ8+elUmTJkmtWrWkZs2alvwGg/bt28vKlSvlyZMn9gG8d+9eadWqlcSMGVNix44t8ePHl0SJElmSKJEkTJhQEiRIoJjEiRNHMcqZM6eMGDFC7ty5Yx/Au3btkqZNm0r48OElceLEwgVKlSplSalSUqxYMSlYsKDkypVLUqZMKTFixJAMGTLIkCFD5Pbt2/YBvGPHDmnYsKEEDx5cUqdOLZUrV5Z27dpZ0q6dtGjRQho0aCDVqlWTbNmySbRo0SRFihQyYMAAuXnzpn0Ab9++XerVqyeBAweWHDlySNu2bWXatGmWTJsmY8aMUTA7duwoxYsXl1ixYkmSJEmkX79+9gOMBvOUggYNKiVLltSLHjx4UCw5KFu3bpVly5bJxIkTpXbt2uqXkiZN6jjAhokgilizZo28ffvWkrdv5e7du3L69GkhNMNspkqVShwGeOfOndKoUSMJESKEmgqemnX8H4EXL17I1atXZc+ePdKlSxdJmzatJEuWTPr37y+3bt3yFaaf4mALYF9x0pMWwObYOOU7FsBOgdH8IhbA5tg45TsWwE6B0fwiFsDm2DjlOxbAToHR/CIWwObYOOU7FsBOgdH8IhbA5tg45TsuA9holNLD+/Lli1sJazZ6atyHWW+NJ+RSgAH248eP8uHDB7cQ1op8/vxZm7sGuAESYDTg/fv3+oTpTSGPHz8O0MIanz59Kq9evVKFsKUqmNkTl2kw2nvx4kVZv369TJ8+XZumFKdHjx4dIIW1jR8/XiZPnizr1q3TrjCazH0AtNnhMoA/ffokW7Zske7du0u5cuWkSJEi2sujrRIQhT5jvnz5dJ2UHTdu3KhazH1gk80OlwGMLVu4cKFUrVpV4saNKxEiRJAgQYJIoECBtPUULFgwCRUqlIQLF04iRozoEmFNYcOGldChQ6vwNWupUKGCzJs3T3kN3EeABrhKlSpCO5uONADTduJGokeProVptLlw4cIukQIFCkjWrFm1C0H7nX5a5MiRpXz58u4FMFwKA+CQIUNqa5vOa6FChaRu3brSqVMnlwjN2zp16ij9IHv27PrAo0aN6h4A+7TBRYsWlTx58qj9zZgxo6RLl07Kli2rfaxRo0Zp03DGjBkyZ84cmTt3rgqvqX8Kv4/uL5yPMmXKSKZMmfTNcgsNxvteunRJncXMmTNl6tSpMmHCBHV68CrSpEmjzg+Hwo2uWrVK+1pw4I4dOyYnTpzwd6ErvmDBAu2f0TXPmzevMnPcAmBCGxzE69ev5eXLlxoP43FhCWESILAQXfTu3VuWLl2qFIB79+5p7GwE+zwk/xTWdvjwYZk1a5auqUSJEkoNcwuAyX7wvsSSmAtD0M5BgwYp3YjXEkILgENkoTN77do1TUr4nH8fJEKsB5PEmwTnA4fsNgCjxYBsK+fOndOkA34FN4RdhtfVrFkztcOwiC5fvqyabAHsBwSuX7+uJgGNQVOSJ0+uEQZBPgzOKVOmqCaTVmMqMBH21AT8sBR9iG6rwWY3DJn70KFDsmjRIunZs6eCDFkDTcZkNGnSRIgqYMrAmLl//76aF4D+Vcpq9vt+dd6tTYTZjcH6BjTqFEuWLFHbBxUWMwHtKHPmzBqbDhw4UJYvXy6nTp36kVEBsjMPjwQYe8yrD7eNkAwPDjOR9JTQDV4XGRZEOuhHMMWvXLkiDx480M8401x4JMC85kQI1IjhzxKLEqYBJo4PMjPxKMUX6hi9evXSWHX//v2q+Xwe+VWN1l4t91iA0WJed8wFMTJM8A0bNmj4RuoMuBCZcYDYZViL8+fP1xKiBfBv1AfNAyQDZAPoM2fOyOrVq2Xw4ME6bJM+fXplKuL8SpcurRkgmo7j44G8efNGr/En2uyRGuwTYIDGZBBdMPpE9DBs2DBNQGCMo804P7I+pneYdoIQTtZnG8b95rn6+m2vANjQQMN5AfS2bdtk5MiRyqqnnEm9lqmm3Llza4RBrMzDwFGSIfrVHns8wGivT3Doh5Htbdq0SUcVqHSRhKDJWbJk0XiZc+PGjdOfMQb+uBYPy5HDKwFGI589e6bs8N27d2sVrkOHDlKxYkUtcVIrQKsJ63r06KE9P36ezwGyI4dXAmwLEAkJ4RkRROvWrXXCiY4DA5EMQ1LLIOs7f/68FoiISmxNju21fPva6wEmhKO6RmpNZxqQKSliKpiupEDO7AjdYBqszEqgyfam1V4PMNEFjgwTQN0WTaZ+jHnA6WEumNuj70d4R7kTLbbXXHg9wEZkwWuPJhNd4NzI+GhSRooUSVNrHCA1ZUI8QLMAtqkT+4wibG0l3wNcnJfRfmLImrHVePHiKcDMB1O7wOERH6P1lolwEGAAw5EZmR4RBZ1qNJhSJwlJ3759Zd++fQ7Vjr3SRBhai+YSE5MWkx5TuqSE2bhxY22z05nG/lavXl1Lnthn9rVw5PBagDEJaC3g4rhmz54t3bp1k0qVKmnCAVHFKM6TVq9du1aOHz8uDx8+dARfz+xoGBoKiAj/txU0lxoD0QDFdurFbdq0Ua1lij1KlCiSP39+ad68uTo87C7pNT+P/XXk8BoNBmDABiBiX+JZYl+6vUQHxL6ACs2JeoTRICX2Ja3GlBiFHwtgm8jAVoMJrdBCptfhTpBY0OmgnURIRnLB7iIQRKCass0NBXv4vIDLtdB+Rw6P12AjnAIcSCnscWNkbRTZiRYAltSYgg9Z29ChQ5UtxIMwsjbeAL8cXgEw4HKjvOqQtdHOli1bqrYS36K1RleDTS9IJijO80B4QMZbYAH8HwJom5E8ABB2FxvKHhSEYWRp2FniXDYXIgzr06ePpsmkyzQ/sdNor61ztAD+DwE0zogS8P44NBqfpMDQqGgRASwRA4xMCCoGdw2zYGRqfjULtg/CI00EmgfpjoET2vaAxxZYbFkDuNBa6SpjFmgREQOfPHlSHRqaywPiDbAAtlUVm69p1wMu261AWWWGg6YmpUejzkvkQHhGDHzkyJEfBRxMyp+aBZuleGaiAecMW4rmYlspNQIuaS+RAtxhQCcGJouDy4bWGpprC9Cffu2RJgKba3Qo6BRjb6mMYW+JHuhQoNmYBVJlogXDJDjDLNg+FLcGGDDQOpwSdhfHhqC9VL7gouHImImgDYTmjh07VujDQV/FTvM5hGv4hxC9EHcb9C2qckQvbsEPRuueP3+urzhxK3UFxgIY7WI7QpwZfAfKjZgH0l+GAEl/uWnIgRTZ/VMogbIH3PDhw3VOg7ibSSO3ABjtvXHjhtpR9h2GSYlpgIOGttLywTyQSDDpAweNWQ0qYyQTFHHQZv8UHiazI9j8GjVqaKWOzT3dAmA8PhrLlBAbZdJL69q1q45tkUhwI7ApeS2pL1B3oK9GPEwT828I9p44Gz4cD5q3ivk9twAY28k4APaWbIxFcxPMo6G9THjyOtLywURQ48XpEVXAqvwbQn2ZEV/WhLmCCoBPcJtJTzbNrF+/vi6eNjuLZyARKhSjtAwlhgkTRs8xwkqtl5+BWfk3hN9F24k18cAZrcXhUmQK8KO0aDBT6xTLqeXS+SXexe4aQtsnoAjMet4kskgqeRSeCOO4D/yJ2UEYSehJzI65+Wt7VxJWHThwQG0pKS+LZnSVfxHOQYkKKIIPwEfQnWZwkjQecPElRERmh8sAZmHEs0QERA9EEYwDEBYRKaAhkK4DkkA4ZL2AS2GJe/hdBukygHnqlBaJgeGXEdvajsgSFwc0Ya0I4SUxPPeA/CqDdBnALAraE4UdSHyATXnS2FaG8wFRbLeU4R4MCXAmwmxBnnbeZRrsaUCa3Y8FsBkyTjpvAewkIM0uYwFshoyTzlsAOwlIs8tYAJsh46TzFsBOAtLsMhbAZsg46bwFsJOANLuMBbAZMk467xSA6Y/BvOFvGdFeoeJkFEK8/V9GzKgaQrnt3Lnzj01F2PDO7r9lZAswO5FQajTa8N7+L2MLMEMZMaO2zX5wxl/j8hPAdF+Z9mG/BkveKKcZkgzb4dJQoMfoMMA0L+n80keDgQNZj3OWbFcWEvttGvN7NE4d/ouIAAm1lO1p+TAzE7DNLWmknA464BAY6cfROPUTwDi3f//9V0E2usF0hL1d6JCz0TSYsDcyGDkMMK0d9l6HLwC/wZJfYwANbPHixdrB8S0a/OkvItLqgacLBYqJS0t+jQFhrLETi10A+/ZD1jm/I/CTBvv9UtYnfUPgf6FUUiMzkfnVAAAAAElFTkSuQmCC;" parent="1" vertex="1">
          <mxGeometry x="204" y="182" width="23" height="25.36" as="geometry" />
        </mxCell>
        <mxCell id="2WaNGQSWL7Zh82Yb_8-l-86" value="gps_ponto" style="rounded=0;whiteSpace=wrap;html=1;" parent="1" vertex="1">
          <mxGeometry x="531.02" y="125" width="98.98" height="50" as="geometry" />
        </mxCell>
        <mxCell id="2WaNGQSWL7Zh82Yb_8-l-87" value="id_ordem" style="ellipse;whiteSpace=wrap;html=1;" parent="1" vertex="1">
          <mxGeometry x="542" y="60" width="68" height="40" as="geometry" />
        </mxCell>
        <mxCell id="2WaNGQSWL7Zh82Yb_8-l-88" value="&lt;u style=&quot;border-color: var(--border-color);&quot;&gt;id_tipo_terreno&amp;nbsp; ???&lt;/u&gt;" style="ellipse;whiteSpace=wrap;html=1;" parent="1" vertex="1">
          <mxGeometry x="650" y="80" width="100" height="50" as="geometry" />
        </mxCell>
        <mxCell id="2WaNGQSWL7Zh82Yb_8-l-90" style="rounded=0;orthogonalLoop=1;jettySize=auto;html=1;exitX=0.5;exitY=0;exitDx=0;exitDy=0;entryX=0.5;entryY=1;entryDx=0;entryDy=0;endArrow=none;endFill=0;" parent="1" source="2WaNGQSWL7Zh82Yb_8-l-86" target="2WaNGQSWL7Zh82Yb_8-l-87" edge="1">
          <mxGeometry relative="1" as="geometry">
            <mxPoint x="287" y="191" as="sourcePoint" />
            <mxPoint x="308" y="160" as="targetPoint" />
          </mxGeometry>
        </mxCell>
        <mxCell id="2WaNGQSWL7Zh82Yb_8-l-91" style="rounded=0;orthogonalLoop=1;jettySize=auto;html=1;exitX=1;exitY=0.5;exitDx=0;exitDy=0;entryX=0;entryY=0.5;entryDx=0;entryDy=0;endArrow=none;endFill=0;" parent="1" source="2WaNGQSWL7Zh82Yb_8-l-86" target="2WaNGQSWL7Zh82Yb_8-l-88" edge="1">
          <mxGeometry relative="1" as="geometry">
            <mxPoint x="591" y="135" as="sourcePoint" />
            <mxPoint x="586" y="110" as="targetPoint" />
          </mxGeometry>
        </mxCell>
        <mxCell id="2WaNGQSWL7Zh82Yb_8-l-92" value="&lt;u style=&quot;border-color: var(--border-color);&quot;&gt;id_terreno&amp;nbsp; ???&lt;/u&gt;" style="ellipse;whiteSpace=wrap;html=1;" parent="1" vertex="1">
          <mxGeometry x="650" y="140" width="100" height="50" as="geometry" />
        </mxCell>
        <mxCell id="2WaNGQSWL7Zh82Yb_8-l-93" value="Nome" style="ellipse;whiteSpace=wrap;html=1;" parent="1" vertex="1">
          <mxGeometry x="451" y="430" width="44" height="40" as="geometry" />
        </mxCell>
        <mxCell id="2WaNGQSWL7Zh82Yb_8-l-94" style="rounded=0;orthogonalLoop=1;jettySize=auto;html=1;endArrow=none;endFill=0;entryX=0.75;entryY=1;entryDx=0;entryDy=0;" parent="1" source="2WaNGQSWL7Zh82Yb_8-l-93" target="ebaqlHpqiGm12PECkaA1-20" edge="1">
          <mxGeometry relative="1" as="geometry">
            <mxPoint x="455" y="430" as="targetPoint" />
            <mxPoint x="401" y="468" as="sourcePoint" />
          </mxGeometry>
        </mxCell>
        <mxCell id="h35FMNAW-fjjw5_3rKHX-1" value="Efeito_obj" style="rounded=0;whiteSpace=wrap;html=1;" vertex="1" parent="1">
          <mxGeometry x="292" y="370" width="67" height="40" as="geometry" />
        </mxCell>
      </root>
    </mxGraphModel>
  </diagram>
</mxfile>
